<svg id="Layer_1" data-name="Layer 1" xmlns="http://www.w3.org/2000/svg" viewBox="0 0 1126.98 90"><defs><style>.cls-1{fill:#fff;}</style></defs><path class="cls-1" d="M754.19,34.68v24.6h-1.28V32.6h1.28l18,24.36V32.6h1.28V59.28h-1.28Z"/><path class="cls-1" d="M784.51,32.6h16.32v1.2h-15V45h14.76v1.2H785.79V58.08h15v1.2H784.51Z"/><path class="cls-1" d="M824.36,35l-6.93,24.28h-1.52l-7.6-26.68h1.4l7,24.76,7-24.76H825l7,24.76,7-24.76h1.4l-7.6,26.68h-1.52Z"/><path class="cls-1" d="M885.8,34.12,875.4,59.28H875L864.6,34.12V59.28h-1.28V32.6h2l9.84,23.88L885,32.6h2V59.28H885.8Z"/><path class="cls-1" d="M898.12,32.6h16.32v1.2h-15V45h14.76v1.2H899.4V58.08h15v1.2H898.12Z"/><path class="cls-1" d="M941.09,52.12H926.2l-3,7.16h-1.48L932.89,32.6h1.52l11.12,26.68h-1.48Zm-14.41-1.2h13.93l-7-16.84Z"/><path class="cls-1" d="M952.73,54.6a10.64,10.64,0,0,0,8.28,4c6.16,0,7.72-3.52,7.72-6,0-4.32-3.88-5.48-7.84-6.6-4.12-1.16-8.36-2.32-8.36-7,0-4.32,4-6.8,8.36-6.8a10.56,10.56,0,0,1,8.64,3.76l-1,.92a9.15,9.15,0,0,0-7.64-3.48c-3.88,0-7,2.32-7,5.6,0,3.6,3.6,4.6,7.4,5.68,4.28,1.24,8.8,2.6,8.8,7.88,0,3-1.92,7.24-9.12,7.24a11.63,11.63,0,0,1-9.32-4.24Z"/><path class="cls-1" d="M980.09,32.6h1.28V49.16c0,5.92,3,9.4,8.64,9.4s8.64-3.48,8.64-9.4V32.6h1.28V49.16c0,6.6-3.44,10.6-9.92,10.6s-9.92-4-9.92-10.6Z"/><path class="cls-1" d="M1018.65,47.76h-6.4V59.28H1011V32.6h9.2c4.33,0,7.89,2.68,7.89,7.56s-3.56,7.6-7.89,7.6l8.25,11.52h-1.64Zm1.52-14h-7.92V46.56h7.92a6.16,6.16,0,0,0,6.49-6.4A6.12,6.12,0,0,0,1020.17,33.8Z"/><path class="cls-1" d="M1038.14,32.6h16.32v1.2h-15V45h14.76v1.2h-14.76V58.08h15v1.2h-16.32Z"/><path class="cls-1" d="M1064.1,54.6a10.64,10.64,0,0,0,8.28,4c6.16,0,7.72-3.52,7.72-6,0-4.32-3.88-5.48-7.84-6.6-4.12-1.16-8.36-2.32-8.36-7,0-4.32,4-6.8,8.36-6.8a10.56,10.56,0,0,1,8.64,3.76l-1,.92a9.15,9.15,0,0,0-7.64-3.48c-3.88,0-7,2.32-7,5.6,0,3.6,3.6,4.6,7.4,5.68,4.28,1.24,8.8,2.6,8.8,7.88,0,3-1.92,7.24-9.12,7.24a11.63,11.63,0,0,1-9.32-4.24Z"/><path class="cls-1" d="M703.62,58.62a14.47,14.47,0,0,0,11-4.84v-10H702V47.9h8v4.16a9.78,9.78,0,0,1-6.32,2.4c-5.28,0-9.2-4.08-9.2-9.68s3.92-9.64,9.2-9.64a8.49,8.49,0,0,1,6.92,3.56l3.84-2.16A12.54,12.54,0,0,0,703.62,31c-7.72,0-14,5.44-14,13.8s6.28,13.84,14,13.84m-22.48-.52V31.42h-4.68V49.94L662.82,31.42H658V58.1h4.68v-19l13.92,19Zm-32.8-26.68h-4.68V58.1h4.68ZM625.18,58.58a12.11,12.11,0,0,0,10.72-6l-4-2a7.83,7.83,0,0,1-6.72,3.88c-5.28,0-9.2-4-9.2-9.64s3.92-9.64,9.2-9.64A7.92,7.92,0,0,1,631.9,39l4-2a12.06,12.06,0,0,0-10.72-6c-7.88,0-14,5.6-14,13.8s6.12,13.8,14,13.8M594.34,44h-6.4V35.54h6.4c2.64,0,4.56,1.68,4.56,4.24S597,44,594.34,44M603.9,58.1l-6.52-10.48a7.48,7.48,0,0,0,6.32-7.84c0-4.92-3.44-8.36-8.72-8.36H583.26V58.1h4.68v-10h4.64l5.92,10Zm-41.84.48c7.72,0,11.52-4.4,11.52-11V31.42h-4.72v16c0,4.24-2.36,7-6.8,7s-6.84-2.76-6.84-7v-16H550.5V47.58c0,6.56,3.8,11,11.56,11m-33.72-4.16c-5.4,0-8.84-4.16-8.84-9.64s3.44-9.64,8.84-9.64,8.84,4.12,8.84,9.64-3.48,9.64-8.84,9.64m0,4.16c8,0,13.64-5.84,13.64-13.8S536.34,31,528.34,31s-13.64,5.84-13.64,13.8,5.64,13.8,13.64,13.8m-31.08,0c7.2,0,10.32-3.8,10.32-8.24,0-5.8-5.24-7.16-9.64-8.28-3.16-.8-5.88-1.48-5.88-3.56s1.76-3.32,4.52-3.32a10.85,10.85,0,0,1,7.72,3L507,34.74A13.88,13.88,0,0,0,497,31c-5.84,0-9.72,3.4-9.72,7.8,0,5.64,5.12,6.92,9.48,8,3.24.84,6.08,1.56,6.08,4,0,1.76-1.52,3.64-5.36,3.64A11.51,11.51,0,0,1,489,50.74l-2.6,3.6c2.36,2.52,5.92,4.24,10.84,4.24M465.66,54h-5.24V35.54h5.24c6,0,9.16,4.08,9.16,9.24s-3.36,9.2-9.16,9.2m0,4.12c8.32,0,14-5.48,14-13.32s-5.64-13.36-14-13.36h-9.92V58.1ZM441,58.1l7.6-26.68h-5.24L438.22,52,432.7,31.42H429L423.46,52l-5.2-20.56H413l7.64,26.68h5l5.16-19.68L436,58.1Zm-46.76-3.68c-5.4,0-8.84-4.16-8.84-9.64s3.44-9.64,8.84-9.64,8.84,4.12,8.84,9.64-3.48,9.64-8.84,9.64m0,4.16c8,0,13.64-5.84,13.64-13.8S402.26,31,394.26,31s-13.64,5.84-13.64,13.8,5.64,13.8,13.64,13.8M363.78,44h-6.4V35.54h6.4c2.64,0,4.56,1.68,4.56,4.24S366.42,44,363.78,44m9.56,14.08-6.52-10.48a7.48,7.48,0,0,0,6.32-7.84c0-4.92-3.44-8.36-8.72-8.36H352.7V58.1h4.68v-10H362l5.92,10Zm-39.12.48a12.11,12.11,0,0,0,10.72-6l-4-2a7.83,7.83,0,0,1-6.72,3.88c-5.28,0-9.2-4-9.2-9.64s3.92-9.64,9.2-9.64A7.92,7.92,0,0,1,340.94,39l4-2a12.06,12.06,0,0,0-10.72-6c-7.88,0-14,5.6-14,13.8s6.12,13.8,14,13.8M289.1,44h-6.4V35.54h6.4c2.64,0,4.56,1.68,4.56,4.24S291.74,44,289.1,44m9.56,14.08-6.52-10.48a7.48,7.48,0,0,0,6.32-7.84c0-4.92-3.44-8.36-8.72-8.36H278V58.1h4.68v-10h4.64l5.92,10Zm-29.44,0V54h-13.6v-7.4h13.32V42.46H255.62V35.54h13.6V31.42H250.94V58.1Zm-34.32,0V35.54H243V31.42H222.14v4.12h8.08V58.1ZM206.22,44h-6.4V35.54h6.4c2.64,0,4.56,1.68,4.56,4.24S208.86,44,206.22,44m9.56,14.08-6.52-10.48a7.48,7.48,0,0,0,6.32-7.84c0-4.92-3.44-8.36-8.72-8.36H195.14V58.1h4.68v-10h4.64l5.92,10Zm-36.16-9.24H170l4.8-12.72Zm8.6,9.24L177.74,31.42H171.9L161.42,58.1h5.32l2-5.12h12.24l2,5.12Zm-33.68,0V31.42h-6.6L140.66,49l-7.24-17.56h-6.6V58.1h4.68V38.3l8.16,19.8h2l8.2-19.8V58.1Zm-46.36.48c7.2,0,10.32-3.8,10.32-8.24,0-5.8-5.24-7.16-9.64-8.28-3.16-.8-5.88-1.48-5.88-3.56s1.76-3.32,4.52-3.32a10.85,10.85,0,0,1,7.72,3l2.68-3.48a13.88,13.88,0,0,0-10-3.72c-5.84,0-9.72,3.4-9.72,7.8,0,5.64,5.12,6.92,9.48,8,3.24.84,6.08,1.56,6.08,4,0,1.76-1.52,3.64-5.36,3.64a11.51,11.51,0,0,1-8.44-3.68l-2.6,3.6c2.36,2.52,5.92,4.24,10.84,4.24"/><path class="cls-1" d="M43.18,28.9A15.58,15.58,0,0,0,31.8,33.62a16.11,16.11,0,0,0,0,22.77,15.58,15.58,0,0,0,11.38,4.72,16.11,16.11,0,1,0,0-32.21ZM38.75,43.14,43.18,45V40.19a4.81,4.81,0,0,1,4.46,3h0l0,.09a3.59,3.59,0,0,1,.12.35c0,.06,0,.12.05.18s0,.18.07.28,0,.18,0,.28a1.1,1.1,0,0,1,0,.18,2.42,2.42,0,0,1,0,.38S48,45,48,45h0c0,.14,0,.27,0,.4a.28.28,0,0,0,0,.09c0,.1,0,.21,0,.32s0,.1,0,.16h0a5.09,5.09,0,0,1-.47,1.29h0c0,.09-.1.17-.15.26l-.09.14a.64.64,0,0,1-.1.13A4.73,4.73,0,0,1,45.89,49h0l-.14.08a2.61,2.61,0,0,1-.28.17l-.07,0c-.12.07-.25.12-.37.18h0l-.09,0-.35.13-.18,0-.28.07-.28,0-.18,0-.38,0h-.36A4.59,4.59,0,0,1,40,48.6a4.81,4.81,0,0,1-1.26-1.77A4.64,4.64,0,0,1,38.75,43.14Zm-2.4,8.71,2-2a6.84,6.84,0,1,0,4.83-11.67V35.34a9.67,9.67,0,1,1,0,19.34A9.32,9.32,0,0,1,36.35,51.85Zm8.5,7.43-.47-2.69a11.65,11.65,0,0,0-1.2-23.23V30.63a14.37,14.37,0,0,1,1.67,28.65Z"/><path class="cls-1" d="M43.19,11.36,13.5,28.18V61.83L43.19,78.66,72.88,61.83V28.18Zm0,51.37a17.13,17.13,0,0,1-12.52-5.19,17.74,17.74,0,0,1,0-25.06,17.1,17.1,0,0,1,12.52-5.19,17.72,17.72,0,0,1,0,35.44Z"/></svg>