<?xml version="1.0" encoding="utf-8"?>
<!-- Generator: Adobe Illustrator 25.0.1, SVG Export Plug-In . SVG Version: 6.00 Build 0)  -->
<svg version="1.1" id="Layer_1" xmlns="http://www.w3.org/2000/svg" xmlns:xlink="http://www.w3.org/1999/xlink" x="0px" y="0px"
	 viewBox="0 0 850 180" style="enable-background:new 0 0 850 180;" xml:space="preserve">
<style type="text/css">
	.st0{fill:#FFFFFF;}
	.st1{enable-background:new    ;}
</style>
<path class="st0" d="M792.3,65.6c0,8.3,6.3,13.8,14,13.8c4.2,0.1,8.2-1.7,11-4.8v-10h-12.7v4.1h8v4.2c-1.8,1.5-4,2.4-6.3,2.4
	c-5.3,0-9.2-4.1-9.2-9.7s3.9-9.6,9.2-9.6c2.7,0,5.3,1.3,6.9,3.5l3.8-2.1c-2.4-3.6-6.4-5.7-10.7-5.5
	C798.5,51.8,792.3,57.2,792.3,65.6 M779.3,78.9h4.5V52.2h-4.7v18.9l-13.6-18.9h-4.8v26.6h4.7V59.4L779.3,78.9z M746.4,78.9h4.7V52.2
	h-4.7V78.9z M727.7,79.3c4.5,0.1,8.6-2.2,10.9-6l-4-2c-1.4,2.4-4.1,3.9-6.9,3.9c-5.1,0-9-4-9-9.6s3.9-9.6,9-9.6
	c2.8,0,5.5,1.5,6.9,3.9l4-2c-2.3-3.9-6.4-6.2-10.9-6c-7.4-0.2-13.5,5.7-13.7,13.1c0,0.2,0,0.4,0,0.7c-0.2,7.4,5.6,13.6,13,13.8
	C727.3,79.3,727.5,79.3,727.7,79.3 M701.8,60.6c0,2.6-1.9,4.2-4.5,4.2h-6.4v-8.5h6.4C699.9,56.3,701.8,58,701.8,60.6 M701.4,78.9
	h5.4l-6.5-10.5c3.8-0.6,6.5-4,6.3-7.8c0-4.9-3.4-8.3-8.7-8.3h-11.7v26.6h4.7V69h4.6L701.4,78.9z M653.5,68.4c0,6.6,3.8,11,11.5,11
	s11.5-4.4,11.5-11V52.2h-4.7v16c0,4.2-2.4,7-6.8,7s-6.8-2.8-6.8-7v-16h-4.7V68.4z M640.2,65.6c0,5.5-3.5,9.6-8.8,9.6
	s-8.8-4.2-8.8-9.6s3.4-9.6,8.8-9.6S640.2,60,640.2,65.6 M617.7,65.6c0,8,5.6,13.8,13.6,13.8S645,73.5,645,65.6s-5.6-13.8-13.6-13.8
	S617.7,57.6,617.7,65.6 M589.4,75.1c2.3,2.5,5.9,4.2,10.8,4.2c7.2,0,10.3-3.8,10.3-8.2c0-5.8-5.2-7.2-9.6-8.3
	c-3.2-0.8-5.9-1.5-5.9-3.6s1.8-3.3,4.5-3.3c2.9-0.1,5.6,1,7.7,3l2.7-3.5c-2.7-2.5-6.3-3.9-10-3.7c-5.8,0-9.7,3.4-9.7,7.8
	c0,5.6,5.1,6.9,9.5,8c3.2,0.8,6.1,1.6,6.1,4c0,1.8-1.5,3.6-5.3,3.6c-3.2,0-6.2-1.4-8.4-3.7L589.4,75.1z M563.4,74.7V56.3h5.2
	c6,0,9.1,4.1,9.1,9.2s-3.3,9.2-9.1,9.2H563.4z M558.7,78.8h9.9c8.3,0,13.9-5.5,13.9-13.3s-5.6-13.3-13.9-13.3h-9.9V78.8z M539,78.8
	h5l7.6-26.6h-5.2l-5.2,20.5l-5.5-20.5H532l-5.5,20.5l-5.2-20.5h-5.2l7.6,26.6h5l5.2-19.7L539,78.8z M506.2,65.5
	c0,5.5-3.5,9.6-8.8,9.6s-8.8-4.2-8.8-9.6s3.4-9.6,8.8-9.6S506.2,60,506.2,65.5 M483.7,65.5c0,8,5.6,13.8,13.6,13.8
	S511,73.5,511,65.6s-5.6-13.8-13.6-13.8S483.8,57.6,483.7,65.5 M471.5,60.6c0,2.6-1.9,4.2-4.5,4.2h-6.4v-8.5h6.4
	C469.6,56.3,471.5,58,471.5,60.6 M471.1,78.9h5.4L470,68.4c3.8-0.6,6.5-4,6.3-7.8c0-4.9-3.4-8.3-8.7-8.3h-11.7v26.6h4.7V69h4.6
	L471.1,78.9z M437.3,79.3c4.5,0.1,8.6-2.2,10.9-6l-4-2c-1.4,2.4-4.1,3.9-6.9,3.9c-5.1,0-9-4-9-9.6s3.9-9.6,9-9.6
	c2.8,0,5.5,1.5,6.9,3.9l4-2c-2.3-3.9-6.4-6.2-10.9-6c-7.4-0.2-13.6,5.6-13.8,13c0,0.3,0,0.5,0,0.8c-0.2,7.4,5.6,13.6,13,13.8
	C436.8,79.4,437,79.4,437.3,79.3 M396.9,60.6c0,2.6-1.9,4.2-4.6,4.2H386v-8.5h6.4C395,56.3,397,58,396.9,60.6 M396.6,78.9h5.4
	l-6.5-10.5c3.8-0.6,6.5-4,6.3-7.8c0-4.9-3.4-8.3-8.7-8.3h-11.7v26.6h4.7V69h4.6L396.6,78.9z M354.3,78.9h18.3v-4.1H359v-7.4h13.3
	v-4.1H359v-6.9h13.6v-4.1h-18.3L354.3,78.9z M333.6,78.9h4.7V56.3h8.1v-4.1h-20.8v4.1h8.1L333.6,78.9z M314.2,60.6
	c0,2.6-1.9,4.2-4.6,4.2h-6.4v-8.5h6.4C312.3,56.3,314.2,58,314.2,60.6 M313.8,78.9h5.4l-6.5-10.5c3.8-0.6,6.6-4,6.3-7.8
	c0-4.9-3.4-8.4-8.7-8.4h-11.7v26.6h4.7v-9.9h4.6L313.8,78.9z M278.3,56.2l5,13.5h-10L278.3,56.2z M286.5,78.8h5.1l-10.5-26.6h-5.8
	l-10.5,26.6h5.1l2-5.1h12.6L286.5,78.8z M253.4,78.8h4.6V52.2h-6.6l-7.3,17.9L237,52.2h-6.6v26.6h4.6V58.7l8.1,20.2h2l8.2-20.2
	L253.4,78.8z M200.9,75.1c2.4,2.5,5.9,4.2,10.8,4.2c7.2,0,10.3-3.8,10.3-8.2c0-5.8-5.2-7.2-9.6-8.3c-3.2-0.8-5.9-1.5-5.9-3.6
	s1.8-3.3,4.5-3.3c2.9-0.1,5.6,1,7.7,3l2.7-3.5c-2.7-2.5-6.3-3.9-10-3.7c-5.8,0-9.7,3.4-9.7,7.8c0,5.6,5.1,6.9,9.5,8
	c3.2,0.8,6.1,1.6,6.1,4c0,1.8-1.5,3.6-5.4,3.6c-3.2,0-6.3-1.3-8.4-3.7L200.9,75.1z"/>
<path class="st0" d="M100.4,51.9c-10-0.1-19.6,3.8-26.6,11c-14.7,14.7-14.7,38.5,0,53.2c7,7.2,16.6,11.1,26.6,11
	c20.8-0.3,37.4-17.5,37-38.2C137.1,68.6,120.8,52.2,100.4,51.9L100.4,51.9z M90.1,85.2l10.4,4.3V78.3c4.6,0,8.7,2.8,10.4,7l0,0
	c0,0.1,0.1,0.1,0.1,0.2c0.1,0.3,0.2,0.6,0.3,0.8c0,0.1,0.1,0.3,0.1,0.4s0.1,0.4,0.2,0.7s0.1,0.4,0.1,0.7l0.1,0.4c0,0.3,0,0.6,0,0.9
	c0,0.1,0,0.1,0,0.2l0,0c0,0.3,0,0.6,0,0.9c0,0.1,0,0.1,0,0.2c0,0.2-0.1,0.5-0.1,0.7s0,0.2-0.1,0.4l0,0c-0.2,1-0.6,2.1-1.1,3l0,0
	c-0.1,0.2-0.2,0.4-0.4,0.6l-0.2,0.3l-0.2,0.3c-0.8,1.1-1.7,2-2.8,2.7l0,0l-0.3,0.2c-0.2,0.1-0.4,0.3-0.7,0.4l-0.2,0.1
	c-0.3,0.1-0.6,0.3-0.8,0.4l0,0l-0.2,0.1c-0.3,0.1-0.6,0.2-0.8,0.3l-0.4,0.1c-0.2,0-0.4,0.1-0.6,0.2l-0.7,0.1c-0.1,0-0.3,0-0.4,0.1
	c-0.3,0-0.6,0-0.9,0h-0.2h-0.6c-2.5-0.1-5-1-6.9-2.7c-1.3-1.1-2.3-2.5-3-4.1C88.8,91,88.9,87.9,90.1,85.2z M84.5,105.5l4.7-4.7
	c6.2,6.3,16.4,6.3,22.6,0c6.3-6.2,6.3-16.4,0-22.6c-3-3-7.1-4.7-11.4-4.7v-6.6c12.5,0.3,22.4,10.6,22.1,23.1
	c-0.3,12.1-10,21.9-22.1,22.1C94.4,112.2,88.7,109.8,84.5,105.5z M104.3,122.9l-1.1-6.3c15-1.5,25.8-14.9,24.3-29.8
	c-1.4-13.9-13.1-24.5-27.1-24.5V56c18.5-0.2,33.8,14.6,34,33.2C134.7,106.5,121.6,121.2,104.3,122.9L104.3,122.9z"/>
<path class="st0" d="M100.5,10.9L31.1,50.2v78.6l69.4,39.3l69.4-39.3V50.2L100.5,10.9z M100.5,131c-11,0.1-21.6-4.2-29.3-12.1
	C55,102.6,55,76.5,71.2,60.3c7.7-7.9,18.3-12.3,29.3-12.1c22.9,0,41.4,18.5,41.4,41.4S123.3,131,100.5,131z"/>
<g class="st1">
	<path class="st0" d="M214.8,100.5h16.9v2.1h-14.6v9.9h14.4v2.1h-14.4v10.6h14.6v2.1h-16.9V100.5z"/>
	<path class="st0" d="M240.4,100.5h8.5c8.3,0,13.5,6,13.5,13.4c0,7.4-5.2,13.3-13.5,13.3h-8.5V100.5z M248.9,125.1
		c7,0,11.1-5,11.1-11.2c0-6.2-4-11.3-11.1-11.3h-6.2v22.5H248.9z"/>
	<path class="st0" d="M271,100.5h2.3v16.4c0,5.4,2.8,8.7,8.1,8.7c5.3,0,8.1-3.3,8.1-8.7v-16.4h2.3v16.4c0,6.6-3.5,10.7-10.4,10.7
		c-6.8,0-10.4-4.2-10.4-10.7V100.5z"/>
	<path class="st0" d="M300.5,113.8c0-8.2,6-13.8,13.4-13.8c4.3,0,7.5,1.9,9.8,4.7l-1.9,1.2c-1.7-2.3-4.6-3.9-7.9-3.9
		c-6.2,0-11,4.8-11,11.7c0,6.9,4.8,11.7,11,11.7c3.3,0,6.2-1.6,7.9-3.9l1.9,1.2c-2.4,2.9-5.5,4.8-9.8,4.8
		C306.4,127.6,300.5,122,300.5,113.8z"/>
	<path class="st0" d="M348,120.6h-14.2l-2.7,6.6h-2.6l10.9-26.7h2.8l10.9,26.7h-2.6L348,120.6z M334.5,118.5h12.8l-6.4-15.8
		L334.5,118.5z"/>
	<path class="st0" d="M364.2,102.5h-8.7v-2.1h19.8v2.1h-8.7v24.6h-2.3V102.5z"/>
	<path class="st0" d="M383,100.5h2.3v26.7H383V100.5z"/>
	<path class="st0" d="M406.8,100c7.8,0,13,6,13,13.8c0,7.8-5.2,13.8-13,13.8c-7.8,0-13-6-13-13.8C393.9,106,399,100,406.8,100z
		 M406.8,102.1c-6.5,0-10.6,4.9-10.6,11.7c0,6.7,4.1,11.7,10.6,11.7c6.4,0,10.6-5,10.6-11.7C417.4,107,413.2,102.1,406.8,102.1z"/>
	<path class="st0" d="M430.7,104.1v23h-2.3v-26.7h2.3l16.7,22.7v-22.7h2.3v26.7h-2.2L430.7,104.1z"/>
</g>
</svg>
