<?xml version="1.0" encoding="utf-8"?>
<!-- Generator: Adobe Illustrator 25.0.1, SVG Export Plug-In . SVG Version: 6.00 Build 0)  -->
<svg version="1.1" id="Layer_1" xmlns="http://www.w3.org/2000/svg" xmlns:xlink="http://www.w3.org/1999/xlink" x="0px" y="0px"
	 viewBox="0 0 1127 90" style="enable-background:new 0 0 1127 90;" xml:space="preserve">
<style type="text/css">
	.st0{fill:#FFFFFF;}
</style>
<path class="st0" d="M703.6,58.6c4.2,0.1,8.2-1.7,11-4.8v-10H702v4.1h8v4.2c-1.8,1.5-4,2.4-6.3,2.4c-5.3,0-9.2-4.1-9.2-9.7
	s3.9-9.6,9.2-9.6c2.7,0,5.3,1.3,6.9,3.6l3.8-2.2c-2.4-3.6-6.5-5.7-10.8-5.5c-7.7,0-14,5.4-14,13.8S695.9,58.6,703.6,58.6
	 M681.1,58.1V31.4h-4.7v18.5l-13.6-18.5H658v26.7h4.7v-19l13.9,19L681.1,58.1z M648.3,31.4h-4.7v26.7h4.7V31.4z M625.2,58.6
	c4.4,0.1,8.5-2.2,10.7-6l-4-2c-1.4,2.4-4,3.9-6.7,3.9c-5.3,0-9.2-4-9.2-9.6s3.9-9.6,9.2-9.6c2.8,0,5.3,1.5,6.7,3.8l4-2
	c-2.2-3.8-6.3-6.1-10.7-6c-7.9,0-14,5.6-14,13.8S617.3,58.6,625.2,58.6 M594.3,44h-6.4v-8.5h6.4c2.6,0,4.6,1.7,4.6,4.2
	S597,44,594.3,44 M603.9,58.1l-6.5-10.5c3.8-0.6,6.6-4,6.3-7.8c0-4.9-3.4-8.4-8.7-8.4h-11.7v26.7h4.7v-10h4.6l5.9,10H603.9z
	 M562.1,58.6c7.7,0,11.5-4.4,11.5-11V31.4h-4.7v16c0,4.2-2.4,7-6.8,7s-6.8-2.8-6.8-7v-16h-4.7v16.2
	C550.5,54.1,554.3,58.6,562.1,58.6 M528.3,54.4c-5.4,0-8.8-4.2-8.8-9.6s3.4-9.6,8.8-9.6s8.8,4.1,8.8,9.6S533.7,54.4,528.3,54.4
	 M528.3,58.6c8,0,13.6-5.8,13.6-13.8S536.3,31,528.3,31s-13.6,5.8-13.6,13.8S520.3,58.6,528.3,58.6 M497.3,58.6
	c7.2,0,10.3-3.8,10.3-8.2c0-5.8-5.2-7.2-9.6-8.3c-3.2-0.8-5.9-1.5-5.9-3.6s1.8-3.3,4.5-3.3c2.9-0.1,5.6,1,7.7,3l2.7-3.5
	c-2.7-2.5-6.3-3.9-10-3.7c-5.8,0-9.7,3.4-9.7,7.8c0,5.6,5.1,6.9,9.5,8c3.2,0.8,6.1,1.6,6.1,4c0,1.8-1.5,3.6-5.4,3.6
	c-3.2,0-6.3-1.3-8.5-3.7l-2.6,3.6C488.8,56.9,492.3,58.6,497.3,58.6 M465.7,54h-5.2V35.5h5.2c6,0,9.2,4.1,9.2,9.2S471.5,54,465.7,54
	 M465.7,58.1c8.3,0,14-5.5,14-13.3s-5.6-13.4-14-13.4h-9.9v26.7H465.7z M441,58.1l7.6-26.7h-5.2L438.2,52l-5.5-20.6H429L423.5,52
	l-5.2-20.6H413l7.6,26.7h5l5.2-19.7l5.2,19.7H441z M394.2,54.4c-5.4,0-8.8-4.2-8.8-9.6s3.4-9.6,8.8-9.6s8.8,4.1,8.8,9.6
	S399.6,54.4,394.2,54.4 M394.2,58.6c8,0,13.6-5.8,13.6-13.8S402.3,31,394.3,31s-13.6,5.8-13.6,13.8S386.3,58.6,394.2,58.6 M363.8,44
	h-6.4v-8.5h6.4c2.6,0,4.6,1.7,4.6,4.2S366.4,44,363.8,44 M373.3,58.1l-6.5-10.5c3.8-0.6,6.6-4,6.3-7.8c0-4.9-3.4-8.4-8.7-8.4h-11.7
	v26.7h4.7v-10h4.6l5.9,10L373.3,58.1z M334.2,58.6c4.4,0.1,8.5-2.2,10.7-6l-4-2c-1.4,2.4-4,3.9-6.7,3.9c-5.3,0-9.2-4-9.2-9.6
	s3.9-9.6,9.2-9.6c2.8,0,5.3,1.5,6.7,3.8l4-2c-2.2-3.8-6.3-6.1-10.7-6c-7.9,0-14,5.6-14,13.8S326.3,58.6,334.2,58.6 M289.1,44h-6.4
	v-8.5h6.4c2.6,0,4.6,1.7,4.6,4.2S291.7,44,289.1,44 M298.7,58.1l-6.5-10.5c3.8-0.6,6.6-4,6.3-7.8c0-4.9-3.4-8.4-8.7-8.4H278v26.7
	h4.7v-10h4.6l5.9,10L298.7,58.1z M269.2,58.1V54h-13.6v-7.4h13.3v-4.1h-13.3v-6.9h13.6v-4.1h-18.3v26.7L269.2,58.1z M234.9,58.1
	V35.5h8.1v-4.1h-20.9v4.1h8.1v22.6L234.9,58.1z M206.2,44h-6.4v-8.5h6.4c2.6,0,4.6,1.7,4.6,4.2S208.9,44,206.2,44 M215.8,58.1
	l-6.5-10.5c3.8-0.6,6.6-4,6.3-7.8c0-4.9-3.4-8.4-8.7-8.4h-11.7v26.7h4.7v-10h4.6l5.9,10L215.8,58.1z M179.6,48.8H170l4.8-12.7
	L179.6,48.8z M188.2,58.1l-10.5-26.7h-5.8l-10.5,26.7h5.3l2-5.1H181l2,5.1L188.2,58.1z M154.5,58.1V31.4h-6.6L140.7,49l-7.2-17.6
	h-6.6v26.7h4.7V38.3l8.2,19.8h2l8.2-19.8v19.8L154.5,58.1z M108.2,58.6c7.2,0,10.3-3.8,10.3-8.2c0-5.8-5.2-7.2-9.6-8.3
	c-3.2-0.8-5.9-1.5-5.9-3.6s1.8-3.3,4.5-3.3c2.9-0.1,5.6,1,7.7,3l2.7-3.5c-2.7-2.5-6.3-3.9-10-3.7c-5.8,0-9.7,3.4-9.7,7.8
	c0,5.6,5.1,6.9,9.5,8c3.2,0.8,6.1,1.6,6.1,4c0,1.8-1.5,3.6-5.4,3.6c-3.2,0-6.3-1.3-8.4-3.7l-2.6,3.6
	C99.7,56.8,103.3,58.6,108.2,58.6"/>
<path class="st0" d="M43.2,28.9c-4.3-0.1-8.4,1.6-11.4,4.7c-6.3,6.3-6.3,16.5,0,22.8c3,3.1,7.1,4.8,11.4,4.7
	c8.9,0.2,16.3-6.8,16.5-15.7S52.9,29.1,44,28.9C43.7,28.9,43.4,28.9,43.2,28.9z M38.8,43.1l4.4,1.9v-4.8c2,0,3.7,1.2,4.5,3l0,0v0.1
	c0,0.1,0.1,0.2,0.1,0.3c0,0.1,0,0.1,0,0.2s0,0.2,0.1,0.3s0,0.2,0,0.3c0,0.1,0,0.1,0,0.2c0,0.1,0,0.3,0,0.4L48,45l0,0
	c0,0.1,0,0.3,0,0.4c0,0,0,0.1,0,0.1c0,0.1,0,0.2,0,0.3s0,0.1,0,0.2l0,0c-0.1,0.4-0.3,0.9-0.5,1.3l0,0c0,0.1-0.1,0.2-0.2,0.3
	l-0.1,0.1c0,0-0.1,0.1-0.1,0.1c-0.4,0.5-0.8,0.9-1.3,1.2l0,0l-0.1,0.1c-0.1,0.1-0.2,0.1-0.3,0.2h-0.1c-0.1,0.1-0.2,0.1-0.4,0.2l0,0
	h-0.1l-0.3,0.1h-0.2l-0.3,0.1h-0.3h-0.2h-0.4h-0.4c-1.1,0-2.1-0.4-2.9-1c-0.5-0.5-1-1.1-1.3-1.8C38.2,45.7,38.2,44.3,38.8,43.1z
	 M36.3,51.8l2-2c2.7,2.7,7,2.7,9.7,0c2.7-2.7,2.7-7,0-9.7c-1.3-1.3-3-2-4.9-2v-2.8c5.3,0,9.7,4.3,9.7,9.7s-4.3,9.7-9.7,9.7
	c0,0,0,0,0,0C40.6,54.7,38.1,53.7,36.3,51.8z M44.8,59.3l-0.5-2.7c6.4-0.7,11-6.5,10.3-12.9c-0.6-5.9-5.6-10.3-11.5-10.4v-2.7
	c7.9,0,14.4,6.4,14.4,14.3C57.6,52.3,52.1,58.5,44.8,59.3z"/>
<path class="st0" d="M43.2,11.4L13.5,28.2v33.7l29.7,16.8l29.7-16.8V28.2L43.2,11.4z M43.2,62.7c-4.7,0.1-9.2-1.8-12.5-5.2
	c-6.9-6.9-6.9-18.1,0-25.1c3.3-3.4,7.8-5.3,12.5-5.2c9.8,0,17.7,7.9,17.7,17.7S53,62.7,43.2,62.7z"/>
<path class="st0" d="M748.2,30.6h16.9v2.1h-14.6v9.9h14.4v2.1h-14.4v10.6h14.6v2.1h-16.9V30.6z"/>
<path class="st0" d="M773.8,30.6h8.5c8.3,0,13.5,6,13.5,13.4c0,7.4-5.2,13.3-13.5,13.3h-8.5V30.6z M782.3,55.2c7,0,11.1-5,11.1-11.2
	c0-6.2-4-11.3-11.1-11.3H776v22.5H782.3z"/>
<path class="st0" d="M804.4,30.6h2.3V47c0,5.4,2.8,8.7,8.1,8.7c5.3,0,8.1-3.3,8.1-8.7V30.6h2.3v16.4c0,6.6-3.5,10.7-10.4,10.7
	c-6.8,0-10.4-4.2-10.4-10.7V30.6z"/>
<path class="st0" d="M833.9,44c0-8.2,6-13.8,13.4-13.8c4.3,0,7.5,1.9,9.8,4.7l-1.9,1.2c-1.7-2.3-4.6-3.9-7.9-3.9
	c-6.2,0-11,4.8-11,11.7c0,6.9,4.8,11.7,11,11.7c3.3,0,6.2-1.6,7.9-3.9l1.9,1.2c-2.4,2.9-5.5,4.8-9.8,4.8
	C839.8,57.8,833.9,52.2,833.9,44z"/>
<path class="st0" d="M881.4,50.8h-14.2l-2.7,6.6H862l10.9-26.7h2.8l10.9,26.7h-2.6L881.4,50.8z M867.9,48.7h12.8l-6.4-15.8
	L867.9,48.7z"/>
<path class="st0" d="M897.6,32.7h-8.7v-2.1h19.8v2.1h-8.7v24.6h-2.3V32.7z"/>
<path class="st0" d="M916.4,30.6h2.3v26.7h-2.3V30.6z"/>
<path class="st0" d="M940.2,30.2c7.8,0,13,6,13,13.8c0,7.8-5.2,13.8-13,13.8c-7.8,0-13-6-13-13.8C927.3,36.2,932.4,30.2,940.2,30.2z
	 M940.2,32.3c-6.5,0-10.6,4.9-10.6,11.7c0,6.7,4.1,11.7,10.6,11.7c6.4,0,10.6-5,10.6-11.7C950.8,37.2,946.6,32.3,940.2,32.3z"/>
<path class="st0" d="M964.1,34.3v23h-2.3V30.6h2.3l16.7,22.7V30.6h2.3v26.7h-2.2L964.1,34.3z"/>
</svg>
