<svg id="Layer_1" data-name="Layer 1" xmlns="http://www.w3.org/2000/svg" viewBox="0 0 850 180"><defs><style>.cls-1{fill:#fff;}</style></defs><path class="cls-1" d="M205.72,102.57v24.61h-1.28V100.49h1.28l18,24.37V100.49H225v26.69h-1.28Z"/><path class="cls-1" d="M236.05,100.49h16.32v1.21h-15v11.16h14.76v1.2H237.33V126h15v1.2H236.05Z"/><path class="cls-1" d="M275.89,102.9,269,127.18h-1.52l-7.6-26.69h1.4l7,24.77,7-24.77h1.36l7,24.77,7-24.77h1.41l-7.61,26.69h-1.52Z"/><path class="cls-1" d="M337.34,102l-10.4,25.16h-.4L316.13,102v25.16h-1.28V100.49h2l9.85,23.89,9.84-23.89h2v26.69h-1.28Z"/><path class="cls-1" d="M349.66,100.49H366v1.21h-15v11.16H365.7v1.2H350.94V126h15v1.2H349.66Z"/><path class="cls-1" d="M392.62,120H377.74l-3,7.16H373.3l11.12-26.69h1.52l11.12,26.69h-1.48Zm-14.4-1.2h13.92l-7-16.84Z"/><path class="cls-1" d="M404.26,122.5a10.64,10.64,0,0,0,8.28,4c6.17,0,7.73-3.52,7.73-6,0-4.32-3.88-5.48-7.85-6.6-4.12-1.16-8.36-2.32-8.36-7,0-4.33,4-6.81,8.36-6.81a10.55,10.55,0,0,1,8.65,3.77l-1,.92a9.14,9.14,0,0,0-7.65-3.49c-3.88,0-7,2.32-7,5.61,0,3.6,3.6,4.6,7.4,5.68,4.29,1.24,8.81,2.6,8.81,7.88,0,3-1.92,7.24-9.13,7.24a11.63,11.63,0,0,1-9.32-4.24Z"/><path class="cls-1" d="M431.63,100.49h1.28v16.57c0,5.92,3,9.4,8.64,9.4s8.64-3.48,8.64-9.4V100.49h1.28v16.57c0,6.6-3.44,10.6-9.92,10.6s-9.92-4-9.92-10.6Z"/><path class="cls-1" d="M470.19,115.66h-6.4v11.52h-1.28V100.49h9.2c4.32,0,7.88,2.69,7.88,7.57s-3.56,7.6-7.88,7.6L480,127.18h-1.64Zm1.52-14h-7.92v12.76h7.92a6.38,6.38,0,1,0,0-12.76Z"/><path class="cls-1" d="M489.67,100.49H506v1.21H491v11.16h14.76v1.2H491V126h15v1.2H489.67Z"/><path class="cls-1" d="M515.63,122.5a10.64,10.64,0,0,0,8.29,4c6.16,0,7.72-3.52,7.72-6,0-4.32-3.88-5.48-7.84-6.6-4.13-1.16-8.37-2.32-8.37-7,0-4.33,4-6.81,8.37-6.81a10.54,10.54,0,0,1,8.64,3.77l-1,.92a9.13,9.13,0,0,0-7.64-3.49c-3.89,0-7,2.32-7,5.61,0,3.6,3.61,4.6,7.41,5.68,4.28,1.24,8.8,2.6,8.8,7.88,0,3-1.92,7.24-9.12,7.24a11.64,11.64,0,0,1-9.33-4.24Z"/><path class="cls-1" d="M792.28,65.55c0,8.35,6.27,13.82,14,13.82a14.44,14.44,0,0,0,11-4.83v-10H804.62v4.11h8v4.15a9.78,9.78,0,0,1-6.31,2.4c-5.27,0-9.19-4.07-9.19-9.67s3.92-9.62,9.19-9.62a8.51,8.51,0,0,1,6.91,3.55L817,57.33a12.51,12.51,0,0,0-10.74-5.55c-7.71,0-14,5.43-14,13.77m-13,13.3h4.51V52.21h-4.67v18.9l-13.62-18.9h-4.79V78.85h4.67V59.44Zm-32.91,0h4.67V52.21h-4.67Zm-18.65.48a12.17,12.17,0,0,0,10.9-6l-4-2a7.92,7.92,0,0,1-6.91,3.87c-5.07,0-9-4-9-9.63s3.92-9.62,9-9.62a8,8,0,0,1,6.91,3.87l4-2a12.12,12.12,0,0,0-10.9-6A13.39,13.39,0,0,0,714,65.55a13.39,13.39,0,0,0,13.78,13.78m-26-18.77c0,2.56-1.91,4.24-4.55,4.24h-6.39V56.33h6.39c2.64,0,4.55,1.68,4.55,4.23m-.4,18.29h5.39l-6.51-10.46a7.47,7.47,0,0,0,6.31-7.83c0-4.91-3.43-8.35-8.7-8.35h-11.7V78.85h4.67V68.91h4.63Zm-47.92-10.5c0,6.55,3.79,11,11.54,11s11.5-4.39,11.5-11V52.21h-4.71v16c0,4.23-2.36,7-6.79,7s-6.83-2.76-6.83-7v-16h-4.71Zm-13.3-2.8c0,5.48-3.48,9.63-8.83,9.63s-8.82-4.15-8.82-9.63,3.43-9.62,8.82-9.62,8.83,4.11,8.83,9.62m-22.45,0c0,8,5.63,13.78,13.62,13.78s13.62-5.83,13.62-13.78-5.63-13.77-13.62-13.77-13.62,5.83-13.62,13.77M589.4,75.1c2.35,2.52,5.91,4.23,10.82,4.23,7.19,0,10.3-3.79,10.3-8.22,0-5.8-5.23-7.15-9.62-8.27-3.16-.8-5.87-1.48-5.87-3.56S596.79,56,599.54,56a10.86,10.86,0,0,1,7.71,3l2.67-3.47a13.83,13.83,0,0,0-10-3.71c-5.83,0-9.7,3.39-9.7,7.78,0,5.63,5.11,6.91,9.46,8,3.24.84,6.07,1.56,6.07,4,0,1.76-1.52,3.64-5.35,3.64A11.5,11.5,0,0,1,592,71.5Zm-26-.36V56.33h5.23c6,0,9.14,4.07,9.14,9.22s-3.35,9.19-9.14,9.19Zm-4.68,4.11h9.91c8.31,0,13.94-5.47,13.94-13.3S577,52.21,568.67,52.21h-9.91Zm-19.69,0h5l7.59-26.64h-5.24l-5.15,20.53-5.51-20.53h-3.71l-5.52,20.53-5.19-20.53h-5.23l7.63,26.64h5l5.15-19.65Zm-32.86-13.3c0,5.48-3.48,9.63-8.83,9.63s-8.83-4.15-8.83-9.63,3.44-9.62,8.83-9.62,8.83,4.11,8.83,9.62m-22.45,0c0,8,5.63,13.78,13.62,13.78S511,73.5,511,65.55s-5.63-13.77-13.62-13.77-13.62,5.83-13.62,13.77m-12.26-5c0,2.56-1.92,4.24-4.55,4.24h-6.39V56.33H467c2.63,0,4.55,1.68,4.55,4.23m-.4,18.29h5.39L470,68.39a7.47,7.47,0,0,0,6.31-7.83c0-4.91-3.43-8.35-8.7-8.35H455.88V78.85h4.68V68.91h4.63Zm-33.87.48a12.19,12.19,0,0,0,10.91-6l-4-2a7.9,7.9,0,0,1-6.91,3.87c-5.07,0-9-4-9-9.63s3.91-9.62,9-9.62a8,8,0,0,1,6.91,3.87l4-2a12.14,12.14,0,0,0-10.91-6,13.38,13.38,0,0,0-13.77,13.77,13.39,13.39,0,0,0,13.77,13.78M396.94,60.56c0,2.56-1.92,4.24-4.56,4.24H386V56.33h6.39c2.64,0,4.56,1.68,4.56,4.23m-.4,18.29h5.39l-6.51-10.46a7.47,7.47,0,0,0,6.31-7.83c0-4.91-3.44-8.35-8.71-8.35h-11.7V78.85H386V68.91h4.64Zm-42.26,0h18.26V74.74H359V67.35h13.3V63.24H359V56.33h13.58V52.21H354.28Zm-20.68,0h4.67V56.33h8.07V52.21H325.53v4.12h8.07ZM314.19,60.56c0,2.56-1.92,4.24-4.56,4.24h-6.39V56.33h6.39c2.64,0,4.56,1.68,4.56,4.23m-.4,18.29h5.39l-6.51-10.46A7.48,7.48,0,0,0,319,60.56c0-4.91-3.44-8.35-8.71-8.35h-11.7V78.85h4.67V68.91h4.64ZM278.28,56.17l5,13.46h-10Zm8.27,22.68h5.11L281.2,52.21h-5.83L264.9,78.85H270l2-5.11h12.62Zm-33.19,0H258V52.21h-6.59l-7.26,17.94L237,52.21h-6.59V78.85H235V58.68l8.15,20.17h2l8.19-20.17ZM200.92,75.1c2.36,2.52,5.91,4.23,10.83,4.23,7.19,0,10.3-3.79,10.3-8.22,0-5.8-5.23-7.15-9.62-8.27-3.16-.8-5.88-1.48-5.88-3.56S208.31,56,211.07,56a10.87,10.87,0,0,1,7.71,3l2.67-3.47a13.83,13.83,0,0,0-10-3.71c-5.83,0-9.71,3.39-9.71,7.78,0,5.63,5.11,6.91,9.47,8,3.23.84,6.07,1.56,6.07,4,0,1.76-1.52,3.64-5.35,3.64a11.48,11.48,0,0,1-8.43-3.68Z"/><path class="cls-1" d="M100.45,51.91a36.4,36.4,0,0,0-26.61,11,37.68,37.68,0,0,0,0,53.22,36.43,36.43,0,0,0,26.61,11,37.64,37.64,0,0,0,0-75.27ZM90.08,85.2l10.37,4.35V78.3a11.24,11.24,0,0,1,10.41,7h0a1.46,1.46,0,0,1,.07.19,7.55,7.55,0,0,1,.29.84c0,.13.07.27.11.41s.11.43.16.65.07.43.1.65l.06.43c0,.3,0,.59,0,.88,0,.07,0,.14,0,.21v0c0,.31,0,.63,0,.94a1.34,1.34,0,0,1,0,.2c0,.25-.07.49-.11.74s0,.25-.06.38h0a10.92,10.92,0,0,1-1.1,3h0c-.11.21-.24.41-.37.61l-.2.34-.23.31a11.32,11.32,0,0,1-2.79,2.73h0l-.32.2c-.21.13-.43.27-.65.39l-.18.08a9.37,9.37,0,0,1-.85.4l0,0-.19.07c-.28.1-.55.2-.84.29l-.42.11c-.21,0-.42.11-.64.15l-.66.1c-.14,0-.28,0-.42.06a8.83,8.83,0,0,1-.89,0h-.23l-.61,0A10.82,10.82,0,0,1,93,97.94,11.18,11.18,0,0,1,90,93.8,10.8,10.8,0,0,1,90.08,85.2Zm-5.61,20.33,4.68-4.68a16,16,0,1,0,11.3-27.29V66.94a22.61,22.61,0,0,1,0,45.21A21.78,21.78,0,0,1,84.47,105.53Zm19.86,17.38-1.09-6.28a27.22,27.22,0,0,0-2.79-54.3V56a33.59,33.59,0,0,1,3.88,67Z"/><path class="cls-1" d="M100.46,10.9,31.07,50.23v78.64l69.39,39.32,69.39-39.32V50.23Zm0,120.06a40.11,40.11,0,0,1-29.28-12.13,41.45,41.45,0,0,1,0-58.56,40.07,40.07,0,0,1,29.28-12.13,41.41,41.41,0,1,1,0,82.82Z"/></svg>